<svg xmlns="http://www.w3.org/2000/svg" viewBox="0 0 900 700">
  <defs>
    <linearGradient id="panel" x1="0%" x2="100%" y1="0%" y2="100%">
      <stop offset="0%" stop-color="#fbf3e4"/>
      <stop offset="100%" stop-color="#edf7f1"/>
    </linearGradient>
  </defs>
  <rect width="900" height="700" rx="40" fill="url(#panel)"/>
  <rect x="120" y="114" width="660" height="472" rx="36" fill="#ffffff" stroke="#ddd0bd"/>
  <rect x="120" y="114" width="660" height="96" rx="36" fill="#17352c"/>
  <circle cx="178" cy="162" r="12" fill="#ddb24f"/>
  <circle cx="214" cy="162" r="12" fill="#8ec9b1"/>
  <circle cx="250" cy="162" r="12" fill="#ffffff" opacity="0.8"/>
  <rect x="178" y="266" width="236" height="108" rx="26" fill="#f6efe2"/>
  <rect x="466" y="266" width="236" height="108" rx="26" fill="#eef6f0"/>
  <rect x="178" y="410" width="524" height="108" rx="26" fill="#fff8ea"/>
  <rect x="212" y="294" width="106" height="18" rx="9" fill="#ddb24f"/>
  <rect x="212" y="326" width="162" height="14" rx="7" fill="#cabda7"/>
  <rect x="500" y="294" width="116" height="18" rx="9" fill="#2c7a5f"/>
  <rect x="500" y="326" width="152" height="14" rx="7" fill="#b0c2b7"/>
  <rect x="214" y="438" width="122" height="18" rx="9" fill="#2c7a5f"/>
  <rect x="214" y="470" width="392" height="14" rx="7" fill="#cabda7"/>
  <circle cx="778" cy="544" r="70" fill="#ddb24f" opacity="0.2"/>
  <circle cx="108" cy="92" r="64" fill="#2c7a5f" opacity="0.1"/>
</svg>
